<?xml version="1.0" standalone="no"?>
<!DOCTYPE svg PUBLIC "-//W3C//DTD SVG 20010904//EN"
 "http://www.w3.org/TR/2001/REC-SVG-20010904/DTD/svg10.dtd">
<svg version="1.0" xmlns="http://www.w3.org/2000/svg"
 width="512.000000pt" height="512.000000pt" viewBox="0 0 512.000000 512.000000"
 preserveAspectRatio="xMidYMid meet">
<metadata>
Created by potrace 1.14, written by Peter Selinger 2001-2017
</metadata>
<g transform="translate(0.000000,512.000000) scale(0.100000,-0.100000)"
fill="#000000" stroke="none">
<path d="M2791 3569 c-207 -36 -399 -237 -467 -490 -20 -76 -21 -213 -4 -680
11 -286 14 -318 49 -503 34 -177 41 -200 66 -226 54 -56 80 -30 89 90 10 138
39 312 52 317 6 2 74 -48 150 -112 239 -200 439 -323 626 -386 72 -24 115 -32
202 -36 103 -5 112 -4 129 15 25 28 14 60 -27 77 -18 8 -73 19 -122 26 -80 10
-104 19 -234 85 -224 113 -481 281 -606 396 -56 52 -113 128 -124 167 -21 74
38 151 255 336 138 118 267 248 314 318 105 154 123 312 49 435 -77 128 -240
198 -397 171z m189 -151 c105 -31 167 -136 141 -236 -32 -116 -281 -398 -499
-565 -60 -46 -61 -46 -88 38 -21 64 -30 355 -15 478 27 221 142 316 361 300
36 -2 81 -9 100 -15z"/>
<path d="M1552 3423 c-11 -10 -66 -106 -122 -213 -104 -198 -158 -283 -185
-294 -9 -3 -54 16 -103 44 -128 74 -182 92 -293 98 -173 9 -348 -48 -453 -148
-68 -64 -91 -118 -83 -194 14 -141 126 -232 419 -341 70 -26 136 -56 147 -67
l21 -19 -37 -67 c-20 -37 -68 -116 -106 -177 -227 -356 -252 -404 -237 -455
24 -83 96 -63 166 46 18 29 72 139 120 246 95 214 121 263 171 326 59 72 73
76 263 69 91 -4 202 -10 247 -13 l82 -7 10 -66 c6 -36 18 -129 26 -206 21
-183 41 -278 71 -336 25 -51 51 -66 83 -50 46 25 54 167 20 371 -11 69 -21
163 -22 209 l-2 85 33 22 c18 13 77 33 130 44 143 32 216 58 242 85 19 20 21
27 10 40 -18 21 -64 19 -186 -10 -58 -14 -134 -25 -169 -25 l-63 0 -6 33 c-3
17 -12 156 -21 307 -17 306 -28 434 -51 560 -22 124 -20 120 -64 120 -22 0
-46 -7 -58 -17z m7 -280 c16 -41 61 -439 61 -544 l0 -90 -42 23 c-49 27 -134
126 -177 208 -48 90 -44 118 40 274 96 176 98 177 118 129z m-605 -218 c95
-28 176 -65 206 -95 30 -30 24 -74 -19 -164 -43 -88 -106 -170 -153 -200 -25
-16 -42 -18 -116 -13 -171 12 -324 85 -394 189 -22 32 -28 53 -28 94 0 48 4
59 36 94 61 68 195 117 320 119 39 1 95 -9 148 -24z m415 -322 c38 -47 81
-107 96 -135 26 -47 26 -50 8 -63 -24 -19 -282 -19 -332 -1 l-33 12 56 109
c68 130 101 176 121 169 8 -3 46 -44 84 -91z"/>
<path d="M4545 3215 c-31 -30 -32 -55 -5 -55 123 0 201 -283 187 -670 -7 -179
-34 -312 -91 -453 -47 -118 -79 -170 -145 -241 -175 -185 -400 -145 -516 93
-52 106 -55 128 -55 521 0 328 -2 369 -18 399 -27 55 -46 61 -82 26 l-31 -30
3 -420 3 -420 28 -70 c118 -295 363 -422 596 -309 122 59 251 226 324 420 75
194 77 211 77 515 0 359 -23 512 -94 633 -50 85 -130 113 -181 61z"/>
</g>
</svg>
